<?xml version='1.0' encoding='UTF-8'?>
<svg width="45mm" height="45mm" version="1.1" viewBox="0 0 45 45" xmlns="http://www.w3.org/2000/svg"><rect x="0" y="0" width="45mm" height="45mm" fill="white"/><path d="M4,4H5V5H4zM5,4H6V5H5zM6,4H7V5H6zM7,4H8V5H7zM8,4H9V5H8zM9,4H10V5H9zM10,4H11V5H10zM13,4H14V5H13zM17,4H18V5H17zM19,4H20V5H19zM20,4H21V5H20zM23,4H24V5H23zM24,4H25V5H24zM27,4H28V5H27zM28,4H29V5H28zM29,4H30V5H29zM31,4H32V5H31zM32,4H33V5H32zM34,4H35V5H34zM35,4H36V5H35zM36,4H37V5H36zM37,4H38V5H37zM38,4H39V5H38zM39,4H40V5H39zM40,4H41V5H40zM4,5H5V6H4zM10,5H11V6H10zM15,5H16V6H15zM18,5H19V6H18zM19,5H20V6H19zM20,5H21V6H20zM21,5H22V6H21zM22,5H23V6H22zM25,5H26V6H25zM26,5H27V6H26zM27,5H28V6H27zM29,5H30V6H29zM30,5H31V6H30zM31,5H32V6H31zM34,5H35V6H34zM40,5H41V6H40zM4,6H5V7H4zM6,6H7V7H6zM7,6H8V7H7zM8,6H9V7H8zM10,6H11V7H10zM13,6H14V7H13zM15,6H16V7H15zM18,6H19V7H18zM21,6H22V7H21zM22,6H23V7H22zM23,6H24V7H23zM24,6H25V7H24zM27,6H28V7H27zM28,6H29V7H28zM31,6H32V7H31zM34,6H35V7H34zM36,6H37V7H36zM37,6H38V7H37zM38,6H39V7H38zM40,6H41V7H40zM4,7H5V8H4zM6,7H7V8H6zM7,7H8V8H7zM8,7H9V8H8zM10,7H11V8H10zM13,7H14V8H13zM15,7H16V8H15zM16,7H17V8H16zM20,7H21V8H20zM23,7H24V8H23zM24,7H25V8H24zM26,7H27V8H26zM27,7H28V8H27zM30,7H31V8H30zM31,7H32V8H31zM34,7H35V8H34zM36,7H37V8H36zM37,7H38V8H37zM38,7H39V8H38zM40,7H41V8H40zM4,8H5V9H4zM6,8H7V9H6zM7,8H8V9H7zM8,8H9V9H8zM10,8H11V9H10zM13,8H14V9H13zM16,8H17V9H16zM18,8H19V9H18zM19,8H20V9H19zM22,8H23V9H22zM27,8H28V9H27zM30,8H31V9H30zM31,8H32V9H31zM32,8H33V9H32zM34,8H35V9H34zM36,8H37V9H36zM37,8H38V9H37zM38,8H39V9H38zM40,8H41V9H40zM4,9H5V10H4zM10,9H11V10H10zM12,9H13V10H12zM15,9H16V10H15zM16,9H17V10H16zM17,9H18V10H17zM23,9H24V10H23zM24,9H25V10H24zM25,9H26V10H25zM26,9H27V10H26zM29,9H30V10H29zM30,9H31V10H30zM31,9H32V10H31zM34,9H35V10H34zM40,9H41V10H40zM4,10H5V11H4zM5,10H6V11H5zM6,10H7V11H6zM7,10H8V11H7zM8,10H9V11H8zM9,10H10V11H9zM10,10H11V11H10zM12,10H13V11H12zM14,10H15V11H14zM16,10H17V11H16zM18,10H19V11H18zM20,10H21V11H20zM22,10H23V11H22zM24,10H25V11H24zM26,10H27V11H26zM28,10H29V11H28zM30,10H31V11H30zM32,10H33V11H32zM34,10H35V11H34zM35,10H36V11H35zM36,10H37V11H36zM37,10H38V11H37zM38,10H39V11H38zM39,10H40V11H39zM40,10H41V11H40zM14,11H15V12H14zM17,11H18V12H17zM19,11H20V12H19zM21,11H22V12H21zM22,11H23V12H22zM24,11H25V12H24zM25,11H26V12H25zM26,11H27V12H26zM28,11H29V12H28zM30,11H31V12H30zM4,12H5V13H4zM7,12H8V13H7zM9,12H10V13H9zM10,12H11V13H10zM12,12H13V13H12zM14,12H15V13H14zM17,12H18V13H17zM20,12H21V13H20zM25,12H26V13H25zM29,12H30V13H29zM30,12H31V13H30zM31,12H32V13H31zM33,12H34V13H33zM35,12H36V13H35zM5,13H6V14H5zM6,13H7V14H6zM7,13H8V14H7zM8,13H9V14H8zM11,13H12V14H11zM13,13H14V14H13zM16,13H17V14H16zM17,13H18V14H17zM18,13H19V14H18zM19,13H20V14H19zM20,13H21V14H20zM24,13H25V14H24zM29,13H30V14H29zM34,13H35V14H34zM35,13H36V14H35zM37,13H38V14H37zM40,13H41V14H40zM6,14H7V15H6zM7,14H8V15H7zM9,14H10V15H9zM10,14H11V15H10zM13,14H14V15H13zM15,14H16V15H15zM16,14H17V15H16zM17,14H18V15H17zM19,14H20V15H19zM23,14H24V15H23zM26,14H27V15H26zM28,14H29V15H28zM29,14H30V15H29zM35,14H36V15H35zM36,14H37V15H36zM37,14H38V15H37zM38,14H39V15H38zM39,14H40V15H39zM40,14H41V15H40zM5,15H6V16H5zM6,15H7V16H6zM9,15H10V16H9zM11,15H12V16H11zM12,15H13V16H12zM13,15H14V16H13zM16,15H17V16H16zM17,15H18V16H17zM20,15H21V16H20zM22,15H23V16H22zM23,15H24V16H23zM25,15H26V16H25zM26,15H27V16H26zM27,15H28V16H27zM29,15H30V16H29zM31,15H32V16H31zM32,15H33V16H32zM34,15H35V16H34zM35,15H36V16H35zM39,15H40V16H39zM4,16H5V17H4zM6,16H7V17H6zM7,16H8V17H7zM8,16H9V17H8zM10,16H11V17H10zM17,16H18V17H17zM18,16H19V17H18zM19,16H20V17H19zM20,16H21V17H20zM21,16H22V17H21zM25,16H26V17H25zM28,16H29V17H28zM29,16H30V17H29zM32,16H33V17H32zM34,16H35V17H34zM35,16H36V17H35zM37,16H38V17H37zM39,16H40V17H39zM40,16H41V17H40zM4,17H5V18H4zM5,17H6V18H5zM6,17H7V18H6zM12,17H13V18H12zM15,17H16V18H15zM16,17H17V18H16zM20,17H21V18H20zM21,17H22V18H21zM23,17H24V18H23zM24,17H25V18H24zM25,17H26V18H25zM26,17H27V18H26zM28,17H29V18H28zM33,17H34V18H33zM34,17H35V18H34zM37,17H38V18H37zM38,17H39V18H38zM39,17H40V18H39zM40,17H41V18H40zM4,18H5V19H4zM7,18H8V19H7zM8,18H9V19H8zM9,18H10V19H9zM10,18H11V19H10zM13,18H14V19H13zM17,18H18V19H17zM18,18H19V19H18zM24,18H25V19H24zM25,18H26V19H25zM27,18H28V19H27zM30,18H31V19H30zM33,18H34V19H33zM34,18H35V19H34zM35,18H36V19H35zM37,18H38V19H37zM40,18H41V19H40zM4,19H5V20H4zM5,19H6V20H5zM7,19H8V20H7zM12,19H13V20H12zM15,19H16V20H15zM17,19H18V20H17zM21,19H22V20H21zM24,19H25V20H24zM25,19H26V20H25zM28,19H29V20H28zM29,19H30V20H29zM31,19H32V20H31zM33,19H34V20H33zM6,20H7V21H6zM7,20H8V21H7zM9,20H10V21H9zM10,20H11V21H10zM11,20H12V21H11zM12,20H13V21H12zM13,20H14V21H13zM14,20H15V21H14zM16,20H17V21H16zM18,20H19V21H18zM20,20H21V21H20zM21,20H22V21H21zM25,20H26V21H25zM26,20H27V21H26zM27,20H28V21H27zM28,20H29V21H28zM30,20H31V21H30zM32,20H33V21H32zM34,20H35V21H34zM38,20H39V21H38zM39,20H40V21H39zM40,20H41V21H40zM5,21H6V22H5zM9,21H10V22H9zM13,21H14V22H13zM16,21H17V22H16zM17,21H18V22H17zM19,21H20V22H19zM24,21H25V22H24zM25,21H26V22H25zM27,21H28V22H27zM28,21H29V22H28zM33,21H34V22H33zM34,21H35V22H34zM35,21H36V22H35zM36,21H37V22H36zM37,21H38V22H37zM40,21H41V22H40zM5,22H6V23H5zM6,22H7V23H6zM9,22H10V23H9zM10,22H11V23H10zM13,22H14V23H13zM15,22H16V23H15zM16,22H17V23H16zM22,22H23V23H22zM24,22H25V23H24zM32,22H33V23H32zM33,22H34V23H33zM35,22H36V23H35zM36,22H37V23H36zM39,22H40V23H39zM40,22H41V23H40zM6,23H7V24H6zM9,23H10V24H9zM11,23H12V24H11zM14,23H15V24H14zM16,23H17V24H16zM17,23H18V24H17zM19,23H20V24H19zM20,23H21V24H20zM21,23H22V24H21zM22,23H23V24H22zM23,23H24V24H23zM24,23H25V24H24zM25,23H26V24H25zM27,23H28V24H27zM32,23H33V24H32zM34,23H35V24H34zM38,23H39V24H38zM4,24H5V25H4zM5,24H6V25H5zM6,24H7V25H6zM7,24H8V25H7zM10,24H11V25H10zM12,24H13V25H12zM16,24H17V25H16zM18,24H19V25H18zM25,24H26V25H25zM26,24H27V25H26zM27,24H28V25H27zM29,24H30V25H29zM32,24H33V25H32zM33,24H34V25H33zM34,24H35V25H34zM36,24H37V25H36zM5,25H6V26H5zM6,25H7V26H6zM8,25H9V26H8zM9,25H10V26H9zM11,25H12V26H11zM12,25H13V26H12zM14,25H15V26H14zM18,25H19V26H18zM20,25H21V26H20zM21,25H22V26H21zM24,25H25V26H24zM25,25H26V26H25zM26,25H27V26H26zM29,25H30V26H29zM32,25H33V26H32zM33,25H34V26H33zM34,25H35V26H34zM37,25H38V26H37zM38,25H39V26H38zM39,25H40V26H39zM40,25H41V26H40zM5,26H6V27H5zM6,26H7V27H6zM8,26H9V27H8zM9,26H10V27H9zM10,26H11V27H10zM11,26H12V27H11zM13,26H14V27H13zM17,26H18V27H17zM18,26H19V27H18zM21,26H22V27H21zM22,26H23V27H22zM23,26H24V27H23zM28,26H29V27H28zM29,26H30V27H29zM30,26H31V27H30zM34,26H35V27H34zM35,26H36V27H35zM39,26H40V27H39zM40,26H41V27H40zM4,27H5V28H4zM11,27H12V28H11zM12,27H13V28H12zM14,27H15V28H14zM15,27H16V28H15zM17,27H18V28H17zM18,27H19V28H18zM19,27H20V28H19zM20,27H21V28H20zM22,27H23V28H22zM24,27H25V28H24zM25,27H26V28H25zM26,27H27V28H26zM28,27H29V28H28zM29,27H30V28H29zM31,27H32V28H31zM33,27H34V28H33zM34,27H35V28H34zM35,27H36V28H35zM36,27H37V28H36zM39,27H40V28H39zM40,27H41V28H40zM4,28H5V29H4zM5,28H6V29H5zM6,28H7V29H6zM9,28H10V29H9zM10,28H11V29H10zM12,28H13V29H12zM13,28H14V29H13zM15,28H16V29H15zM16,28H17V29H16zM20,28H21V29H20zM21,28H22V29H21zM22,28H23V29H22zM24,28H25V29H24zM25,28H26V29H25zM26,28H27V29H26zM28,28H29V29H28zM29,28H30V29H29zM31,28H32V29H31zM34,28H35V29H34zM40,28H41V29H40zM5,29H6V30H5zM6,29H7V30H6zM12,29H13V30H12zM14,29H15V30H14zM16,29H17V30H16zM17,29H18V30H17zM18,29H19V30H18zM19,29H20V30H19zM22,29H23V30H22zM23,29H24V30H23zM24,29H25V30H24zM28,29H29V30H28zM29,29H30V30H29zM32,29H33V30H32zM34,29H35V30H34zM35,29H36V30H35zM38,29H39V30H38zM39,29H40V30H39zM40,29H41V30H40zM4,30H5V31H4zM7,30H8V31H7zM10,30H11V31H10zM11,30H12V31H11zM13,30H14V31H13zM17,30H18V31H17zM18,30H19V31H18zM19,30H20V31H19zM20,30H21V31H20zM21,30H22V31H21zM27,30H28V31H27zM29,30H30V31H29zM30,30H31V31H30zM35,30H36V31H35zM37,30H38V31H37zM38,30H39V31H38zM40,30H41V31H40zM5,31H6V32H5zM7,31H8V32H7zM11,31H12V32H11zM17,31H18V32H17zM20,31H21V32H20zM21,31H22V32H21zM23,31H24V32H23zM25,31H26V32H25zM26,31H27V32H26zM27,31H28V32H27zM29,31H30V32H29zM30,31H31V32H30zM31,31H32V32H31zM34,31H35V32H34zM36,31H37V32H36zM4,32H5V33H4zM5,32H6V33H5zM6,32H7V33H6zM10,32H11V33H10zM13,32H14V33H13zM15,32H16V33H15zM18,32H19V33H18zM19,32H20V33H19zM20,32H21V33H20zM21,32H22V33H21zM25,32H26V33H25zM28,32H29V33H28zM32,32H33V33H32zM33,32H34V33H33zM34,32H35V33H34zM35,32H36V33H35zM36,32H37V33H36zM37,32H38V33H37zM38,32H39V33H38zM40,32H41V33H40zM12,33H13V34H12zM14,33H15V34H14zM15,33H16V34H15zM16,33H17V34H16zM17,33H18V34H17zM18,33H19V34H18zM20,33H21V34H20zM24,33H25V34H24zM25,33H26V34H25zM27,33H28V34H27zM28,33H29V34H28zM29,33H30V34H29zM30,33H31V34H30zM31,33H32V34H31zM32,33H33V34H32zM36,33H37V34H36zM37,33H38V34H37zM39,33H40V34H39zM40,33H41V34H40zM4,34H5V35H4zM5,34H6V35H5zM6,34H7V35H6zM7,34H8V35H7zM8,34H9V35H8zM9,34H10V35H9zM10,34H11V35H10zM13,34H14V35H13zM20,34H21V35H20zM21,34H22V35H21zM24,34H25V35H24zM25,34H26V35H25zM26,34H27V35H26zM28,34H29V35H28zM29,34H30V35H29zM30,34H31V35H30zM31,34H32V35H31zM32,34H33V35H32zM34,34H35V35H34zM36,34H37V35H36zM37,34H38V35H37zM39,34H40V35H39zM40,34H41V35H40zM4,35H5V36H4zM10,35H11V36H10zM12,35H13V36H12zM13,35H14V36H13zM14,35H15V36H14zM16,35H17V36H16zM17,35H18V36H17zM18,35H19V36H18zM20,35H21V36H20zM21,35H22V36H21zM23,35H24V36H23zM25,35H26V36H25zM26,35H27V36H26zM27,35H28V36H27zM28,35H29V36H28zM30,35H31V36H30zM32,35H33V36H32zM36,35H37V36H36zM38,35H39V36H38zM39,35H40V36H39zM40,35H41V36H40zM4,36H5V37H4zM6,36H7V37H6zM7,36H8V37H7zM8,36H9V37H8zM10,36H11V37H10zM13,36H14V37H13zM16,36H17V37H16zM17,36H18V37H17zM18,36H19V37H18zM20,36H21V37H20zM22,36H23V37H22zM24,36H25V37H24zM25,36H26V37H25zM26,36H27V37H26zM27,36H28V37H27zM29,36H30V37H29zM32,36H33V37H32zM33,36H34V37H33zM34,36H35V37H34zM35,36H36V37H35zM36,36H37V37H36zM40,36H41V37H40zM4,37H5V38H4zM6,37H7V38H6zM7,37H8V38H7zM8,37H9V38H8zM10,37H11V38H10zM12,37H13V38H12zM14,37H15V38H14zM15,37H16V38H15zM16,37H17V38H16zM17,37H18V38H17zM18,37H19V38H18zM19,37H20V38H19zM21,37H22V38H21zM22,37H23V38H22zM25,37H26V38H25zM26,37H27V38H26zM29,37H30V38H29zM30,37H31V38H30zM32,37H33V38H32zM36,37H37V38H36zM4,38H5V39H4zM6,38H7V39H6zM7,38H8V39H7zM8,38H9V39H8zM10,38H11V39H10zM13,38H14V39H13zM14,38H15V39H14zM18,38H19V39H18zM20,38H21V39H20zM23,38H24V39H23zM26,38H27V39H26zM29,38H30V39H29zM30,38H31V39H30zM36,38H37V39H36zM39,38H40V39H39zM40,38H41V39H40zM4,39H5V40H4zM10,39H11V40H10zM13,39H14V40H13zM14,39H15V40H14zM17,39H18V40H17zM18,39H19V40H18zM19,39H20V40H19zM22,39H23V40H22zM23,39H24V40H23zM24,39H25V40H24zM25,39H26V40H25zM26,39H27V40H26zM27,39H28V40H27zM28,39H29V40H28zM29,39H30V40H29zM31,39H32V40H31zM32,39H33V40H32zM34,39H35V40H34zM37,39H38V40H37zM4,40H5V41H4zM5,40H6V41H5zM6,40H7V41H6zM7,40H8V41H7zM8,40H9V41H8zM9,40H10V41H9zM10,40H11V41H10zM12,40H13V41H12zM13,40H14V41H13zM14,40H15V41H14zM16,40H17V41H16zM17,40H18V41H17zM19,40H20V41H19zM21,40H22V41H21zM25,40H26V41H25zM26,40H27V41H26zM28,40H29V41H28zM29,40H30V41H29zM31,40H32V41H31zM32,40H33V41H32zM34,40H35V41H34zM35,40H36V41H35zM37,40H38V41H37zM39,40H40V41H39zM40,40H41V41H40z" id="qr-path" fill="#000000" fill-opacity="1" fill-rule="nonzero" stroke="none"/></svg>